<svg width="913" height="185" viewBox="0 0 913 185" fill="none" xmlns="http://www.w3.org/2000/svg">
<path d="M62.7365 93.7436L48.8829 96.0999C48.2975 94.3326 47.3219 92.5654 46.1512 90.9945C44.7853 89.2273 43.0292 88.0491 41.078 87.0673C38.5414 85.8892 35.8097 85.4965 33.078 85.4965C29.1756 85.3001 25.4683 86.2819 22.3463 88.4419C19.6146 90.0127 18.0537 92.7618 18.0537 95.9035C18.0537 98.4562 19.0293 100.813 20.9805 102.187C23.7122 104.151 27.0293 105.525 30.3463 106.114L42.8341 109.06C50.0536 110.827 55.3219 113.38 58.834 116.718C62.3462 120.252 64.2974 125.161 64.1023 130.266C64.1023 134.783 62.7365 139.299 60.0048 143.03C57.078 146.957 53.1755 149.902 48.6877 151.67C43.4195 153.83 37.7609 154.811 32.1024 154.811C23.3219 154.811 16.1025 152.848 10.6391 149.117C5.17565 145.386 1.46834 139.495 0.492737 133.015L15.1268 130.856C15.9073 134.39 17.8585 137.532 20.7854 139.495C24.1024 141.655 28.0049 142.637 31.9073 142.441C36.2 142.637 40.2975 141.459 43.8097 139.299C46.5414 137.728 48.2975 134.783 48.2975 131.641C48.2975 129.285 47.3219 126.928 45.5658 125.357C43.2243 123.394 40.2975 122.019 37.1756 121.627L23.9073 118.681C16.6878 116.914 11.2244 114.361 7.71223 110.63C4.20004 106.9 2.24883 101.794 2.44395 96.689C2.44395 92.369 3.8098 88.0491 6.34638 84.5147C9.07808 80.7838 12.7854 78.0348 17.0781 76.2676C21.9561 74.304 27.4195 73.3222 32.6878 73.3222C41.078 73.3222 47.9072 75.0894 52.5902 78.8202C57.8584 82.7474 61.3706 87.8528 62.7365 93.7436Z" fill="white"/>
<path d="M100.2 155.002C95.5167 155.002 91.029 154.02 86.7363 152.253C82.8339 150.485 79.5168 147.736 77.1754 144.202C74.8339 140.275 73.468 135.758 73.6632 131.046C73.468 127.315 74.4437 123.388 76.1997 120.05C77.9558 117.301 80.2973 114.944 83.029 113.374C86.1509 111.606 89.2729 110.428 92.7851 109.643C96.2972 108.857 100.005 108.072 103.712 107.679L115.029 106.305C117.175 106.108 119.322 105.519 121.468 104.537C122.834 103.752 123.614 102.181 123.419 100.61V100.217C123.614 96.2902 122.248 92.5594 119.712 89.8104C116.59 87.0613 112.687 85.6868 108.59 85.8832C104.297 85.6868 100.005 86.865 96.4924 89.2213C93.7607 91.1849 91.8094 93.7375 90.4436 96.6829L76.0046 93.7375C77.5656 89.2213 80.1022 85.0977 83.6144 81.956C86.9314 79.0106 90.8338 76.8506 94.9314 75.4761C99.2241 74.1016 103.907 73.5125 108.395 73.5125C111.712 73.5125 115.029 73.9052 118.346 74.6907C121.858 75.4761 125.175 76.8506 128.297 78.6179C131.419 80.7778 134.151 83.5268 135.907 86.865C138.053 91.1849 139.029 96.0939 138.834 100.806V153.038H123.809V142.238H123.224C122.053 144.791 120.687 146.755 118.736 148.522C116.59 150.682 114.053 152.253 111.126 153.234C107.614 154.609 103.907 155.198 100.2 155.002ZM103.517 142.827C107.224 143.024 110.931 142.042 114.248 140.275C117.175 138.704 119.517 136.544 121.078 133.795C122.639 131.242 123.419 128.1 123.419 125.155V114.944C122.443 115.73 121.468 116.123 120.297 116.515C118.541 117.104 116.785 117.497 115.029 117.693C113.078 118.086 111.126 118.282 109.175 118.479L104.492 119.068C101.761 119.461 99.0289 120.05 96.4924 121.032C94.346 121.817 92.1997 122.995 90.6387 124.762C89.0777 126.53 88.2973 128.886 88.4924 131.242C88.2973 134.58 89.8582 137.918 92.5899 139.882C95.907 142.042 99.6143 143.024 103.517 142.827Z" fill="white"/>
<path d="M178.248 155.002C173.565 155.002 169.077 154.02 164.785 152.253C160.882 150.485 157.565 147.736 155.224 144.202C152.882 140.275 151.516 135.759 151.712 131.046C151.516 127.315 152.492 123.388 154.248 120.05C156.004 117.301 158.346 114.944 161.077 113.374C164.199 111.606 167.321 110.428 170.833 109.643C174.346 108.857 178.053 108.072 181.76 107.679L193.077 106.305C195.224 106.108 197.37 105.519 199.516 104.537C200.882 103.752 201.663 102.181 201.467 100.61V100.217C201.663 96.2902 200.297 92.5594 197.76 89.8104C194.638 87.0613 190.736 85.6868 186.638 85.8832C182.346 85.6868 178.053 86.865 174.541 89.2213C171.809 91.1849 169.858 93.7375 168.492 96.6829L154.053 93.7375C155.614 89.2213 158.151 85.0977 161.663 81.956C164.98 79.0106 168.882 76.8506 172.98 75.4761C177.272 74.1016 181.955 73.5125 186.443 73.5125C189.76 73.5125 193.077 73.9052 196.394 74.6907C199.907 75.4761 203.224 76.8506 206.346 78.6179C209.467 80.7778 212.199 83.5268 213.955 86.865C216.102 91.1849 217.077 96.0939 216.882 100.806V153.038H202.053V142.238H201.467C200.297 144.398 198.931 146.362 196.98 148.129C194.833 150.289 192.297 151.86 189.37 152.842C185.858 154.609 181.955 155.198 178.248 155.002ZM181.565 142.827C185.272 143.024 188.98 142.042 192.492 140.275C195.419 138.704 197.76 136.544 199.321 133.795C200.882 131.242 201.663 128.1 201.663 125.155V114.944C200.687 115.73 199.711 116.123 198.541 116.515C196.785 117.104 195.028 117.497 193.272 117.693C191.321 118.086 189.37 118.282 187.419 118.479L182.736 119.068C180.004 119.461 177.272 120.05 174.736 121.032C172.59 121.817 170.443 122.995 168.882 124.762C167.321 126.53 166.541 128.886 166.736 131.242C166.541 134.58 168.102 137.918 170.833 139.882C173.955 142.042 177.663 143.024 181.565 142.827Z" fill="white"/>
<path d="M292.005 93.7386L278.152 96.0949C277.566 94.3277 276.591 92.5605 275.42 90.9896C274.054 89.2224 272.298 88.0442 270.347 87.0624C267.81 85.8842 265.078 85.4915 262.347 85.4915C258.444 85.2952 254.737 86.277 251.615 88.4369C248.883 90.0078 247.322 92.7568 247.322 95.8986C247.322 98.4513 248.298 100.808 250.249 102.182C252.981 104.146 256.298 105.52 259.615 106.109L272.103 109.055C279.322 110.822 284.591 113.375 288.103 116.713C291.615 120.247 293.566 125.156 293.371 130.262C293.371 134.778 292.005 139.294 289.273 142.829C286.347 146.756 282.444 149.701 277.956 151.468C272.688 153.628 267.03 154.61 261.176 154.61C252.396 154.61 245.176 152.646 239.713 148.916C234.249 145.185 230.542 139.294 229.566 132.814L244.396 130.654C245.176 134.189 247.127 137.33 250.054 139.294C253.371 141.454 257.274 142.436 261.176 142.239C265.469 142.436 269.566 141.258 273.078 139.098C275.81 137.527 277.566 134.581 277.566 131.44C277.566 129.083 276.591 126.727 274.834 125.156C272.493 123.193 269.566 121.818 266.639 121.425L253.371 118.48C246.152 116.713 240.688 114.16 237.176 110.429C233.664 106.698 231.713 101.593 231.908 96.4877C231.908 92.1678 233.274 87.8478 235.81 84.3134C238.542 80.5825 242.249 77.8335 246.542 76.0663C251.42 74.1027 256.883 73.1209 262.152 73.1209C270.542 73.1209 277.176 74.8881 282.054 78.6189C287.322 82.7425 290.639 87.8478 292.005 93.7386Z" fill="white"/>
<path d="M316.784 154.215C311.126 154.215 306.638 149.699 306.638 144.004C306.638 141.255 307.809 138.703 309.565 136.935C313.467 133.008 319.906 133.008 324.004 137.132C327.126 140.273 327.906 145.379 325.565 149.306C324.589 150.877 323.418 152.055 321.857 153.037C320.296 153.822 318.54 154.215 316.784 154.215Z" fill="white"/>
<path d="M376.491 184.263C371.028 184.46 365.565 183.478 360.491 181.907C356.394 180.532 352.687 178.372 349.565 175.427C346.833 172.874 344.687 169.929 343.321 166.787L356.394 161.289C357.565 162.86 358.735 164.431 360.101 166.002C361.857 167.769 364.004 169.34 366.345 170.322C369.662 171.696 373.174 172.285 376.686 172.089C381.76 172.285 386.833 170.911 390.93 167.965C394.638 165.216 396.589 160.7 396.589 154.613V138.904H395.613C394.443 140.868 393.272 142.831 391.711 144.402C389.76 146.562 387.418 148.526 384.686 149.704C380.979 151.275 377.077 152.06 372.979 152.06C367.126 152.06 361.272 150.686 356.199 147.74C351.126 144.599 347.028 140.082 344.491 134.781C341.37 128.104 340.004 121.035 340.199 113.574C340.004 106.112 341.37 98.8468 344.491 91.9742C347.028 86.2798 351.126 81.5672 356.199 78.229C361.272 75.0873 367.126 73.3201 372.979 73.5164C377.077 73.3201 380.979 74.1055 384.686 75.8727C387.418 77.2473 389.76 79.2108 391.711 81.5672C393.077 83.3344 394.443 85.298 395.613 87.2616H396.784V74.4982H411.613V155.006C411.808 160.896 410.247 166.591 406.93 171.5C403.808 175.82 399.321 179.158 394.247 181.121C388.784 183.478 382.735 184.46 376.491 184.263ZM376.296 139.493C380.199 139.69 384.101 138.511 387.418 136.351C390.54 134.191 393.077 131.05 394.443 127.319C396.199 122.803 396.979 118.09 396.979 113.377C396.979 108.665 396.199 103.952 394.638 99.4359C393.272 95.705 390.93 92.3669 387.808 90.0106C380.979 85.4943 372.004 85.4944 365.174 90.207C362.052 92.7597 359.711 96.0978 358.345 99.8286C356.784 104.149 356.004 108.861 356.004 113.377C356.004 118.09 356.784 122.606 358.345 126.926C359.711 130.657 362.247 133.799 365.369 135.959C368.296 138.315 372.199 139.493 376.296 139.493Z" fill="white"/>
<path d="M428.589 153.232V74.492H443.224V87.059H444.004C445.37 82.9355 447.906 79.401 451.614 77.0447C455.321 74.6884 459.614 73.3139 463.906 73.3139C464.882 73.3139 466.053 73.3139 467.223 73.3139C468.394 73.3139 469.565 73.5102 470.345 73.5102V88.2372C469.76 88.0408 468.589 87.8445 467.028 87.6481C465.467 87.4518 463.906 87.2554 462.345 87.2554C459.028 87.2554 455.711 88.0408 452.784 89.6117C447.126 92.5571 443.614 98.6442 443.614 105.124V153.232H428.589Z" fill="white"/>
<path d="M510.345 155.003C503.516 155.199 496.882 153.432 491.223 149.897C485.76 146.559 481.272 141.65 478.541 135.76C475.419 129.083 473.858 121.818 474.053 114.356C473.858 106.895 475.419 99.6295 478.541 92.9533C481.272 87.0625 485.76 82.1535 491.223 78.619C503.126 71.9428 517.76 71.9428 529.662 78.619C535.126 82.1535 539.418 87.0625 542.345 92.9533C545.467 99.6295 547.028 106.895 546.833 114.356C547.028 121.622 545.467 129.083 542.345 135.76C539.614 141.65 535.126 146.559 529.662 149.897C523.614 153.236 516.98 155.003 510.345 155.003ZM510.345 142.043C514.638 142.239 518.736 140.865 522.248 138.312C525.37 135.76 527.906 132.225 529.272 128.298C532.199 119.265 532.199 109.644 529.272 100.611C527.906 96.6841 525.565 93.1496 522.248 90.4006C515.223 85.2952 505.662 85.2952 498.638 90.4006C495.321 93.1496 492.98 96.6841 491.614 100.611C488.687 109.644 488.687 119.265 491.614 128.298C492.98 132.225 495.321 135.76 498.638 138.312C501.76 140.865 506.053 142.239 510.345 142.043Z" fill="white"/>
<path d="M609.661 120.639V74.4944H624.881V153.235H609.856V139.686H609.076C607.32 144.006 604.198 147.54 600.49 150.093C596.198 153.038 590.929 154.413 585.661 154.216C580.978 154.216 576.49 153.235 572.393 150.878C568.49 148.522 565.369 144.987 563.417 140.864C561.076 135.759 559.905 130.064 560.1 124.566V74.4944H575.32V122.799C575.125 127.511 576.686 132.028 579.808 135.562C582.734 138.704 587.027 140.471 591.32 140.275C594.247 140.275 597.173 139.489 599.905 138.115C602.832 136.544 605.173 134.384 606.93 131.635C608.881 128.493 609.856 124.566 609.661 120.639Z" fill="white"/>
<path d="M641.857 182.885V74.4948H656.687V87.2582H658.052C659.223 85.2946 660.589 83.331 661.955 81.5638C663.906 79.2075 666.248 77.4402 668.784 76.0657C672.491 74.2985 676.394 73.513 680.491 73.7094C686.54 73.513 692.394 75.2803 697.467 78.6184C702.54 81.9565 706.638 86.8655 709.174 92.5599C712.101 99.4325 713.662 106.894 713.467 114.356C713.662 121.817 712.296 129.279 709.174 136.152C706.638 141.846 702.735 146.755 697.467 150.093C692.394 153.431 686.54 155.002 680.687 155.002C676.589 155.199 672.687 154.413 668.979 152.646C666.248 151.271 663.906 149.308 661.955 146.951C660.589 145.184 659.223 143.221 658.052 141.257H657.077V183.082H641.857V182.885ZM656.687 113.963C656.687 118.872 657.467 123.781 659.028 128.494C660.394 132.421 662.735 135.759 665.857 138.312C672.687 143.024 681.662 143.024 688.296 138.115C691.418 135.563 693.955 132.028 695.321 128.101C698.443 119.068 698.443 109.054 695.321 100.022C693.955 96.0944 691.613 92.7563 688.491 90.2036C681.662 85.491 672.687 85.491 665.857 90.0072C662.735 92.5599 660.394 95.898 659.028 99.6289C657.467 104.145 656.687 109.054 656.687 113.963Z" fill="white"/>
<path d="M834.638 156.769C832.686 156.769 830.735 155.983 829.174 154.413C826.052 151.271 826.052 146.362 829.174 143.22L884.979 87.0612C892.784 79.2068 897.077 68.7998 897.077 57.8037C897.077 46.8075 892.784 36.4005 884.979 28.5461C868.979 12.4446 842.833 12.4446 826.833 28.5461L771.028 84.7049C767.906 87.8467 763.028 87.8467 759.906 84.7049C756.784 81.5632 756.784 76.6542 759.906 73.5124L815.711 17.3536C837.76 -4.83501 873.857 -4.83501 895.906 17.3536C906.638 28.1534 912.491 42.4876 912.491 57.8037C912.491 73.1197 906.638 87.4539 895.906 98.2537L840.101 154.413C838.735 155.983 836.784 156.769 834.638 156.769Z" fill="url(#paint0_linear_5604_761)"/>
<path d="M800.1 156.769C798.149 156.769 796.197 155.984 794.636 154.413C791.514 151.271 791.514 146.362 794.636 143.221L867.807 69.5858C874.246 63.1059 874.246 52.5025 867.807 45.8263C861.368 39.3464 850.636 39.3464 844.197 45.8263L771.027 119.461C767.905 122.603 763.027 122.603 759.905 119.461C756.783 116.319 756.783 111.41 759.905 108.269L833.27 34.8302C845.758 22.2632 866.246 22.2632 878.929 34.8302C891.612 47.3972 891.612 68.0149 878.929 80.7783L805.563 154.413C804.002 155.984 802.051 156.769 800.1 156.769Z" fill="url(#paint1_linear_5604_761)"/>
<path d="M765.565 156.77C763.613 156.77 761.662 155.984 760.101 154.413C756.979 151.272 756.979 146.363 760.101 143.221L850.443 52.3064C853.565 49.1646 858.443 49.1646 861.565 52.3064C864.686 55.4481 864.686 60.3571 861.565 63.4989L771.028 154.61C769.467 155.984 767.516 156.77 765.565 156.77Z" fill="url(#paint2_linear_5604_761)"/>
<defs>
<linearGradient id="paint0_linear_5604_761" x1="794.563" y1="119.633" x2="896.69" y2="18.1495" gradientUnits="userSpaceOnUse">
<stop stop-color="#E15A32"/>
<stop offset="1" stop-color="#B28CFF"/>
</linearGradient>
<linearGradient id="paint1_linear_5604_761" x1="777.307" y1="137.087" x2="879.485" y2="35.553" gradientUnits="userSpaceOnUse">
<stop stop-color="#E15A32"/>
<stop offset="1" stop-color="#B28CFF"/>
</linearGradient>
<linearGradient id="paint2_linear_5604_761" x1="759.982" y1="154.464" x2="862.149" y2="52.9407" gradientUnits="userSpaceOnUse">
<stop stop-color="#E15A32"/>
<stop offset="1" stop-color="#B28CFF"/>
</linearGradient>
</defs>
</svg>
