<svg width="992" height="233" viewBox="0 0 992 233" fill="none" xmlns="http://www.w3.org/2000/svg">
<path d="M914.774 177.988V84.8597H931.054L931.579 109.192L929.653 107.792C930.82 102.073 932.862 97.4052 935.78 93.7875C938.814 90.053 942.49 87.3105 946.808 85.56C951.126 83.6927 955.736 82.7591 960.638 82.7591C967.64 82.7591 973.416 84.3346 977.968 87.4855C982.519 90.5198 985.962 94.7211 988.296 100.089C990.63 105.341 991.797 111.293 991.797 117.945V177.988H974.117V122.496C974.117 114.444 972.541 108.375 969.39 104.291C966.356 100.206 961.746 98.1638 955.561 98.1638C951.243 98.1638 947.334 99.0974 943.832 100.965C940.448 102.832 937.706 105.633 935.605 109.367C933.504 112.985 932.454 117.478 932.454 122.846V177.988H914.774Z" fill="white"/>
<path d="M855.324 180.089C846.688 180.089 839.102 178.105 832.567 174.137C826.148 170.169 821.13 164.509 817.512 157.157C814.011 149.805 812.261 141.227 812.261 131.424C812.261 121.504 814.011 112.927 817.512 105.691C821.13 98.3389 826.148 92.6788 832.567 88.7109C839.102 84.743 846.688 82.7591 855.324 82.7591C863.96 82.7591 871.487 84.743 877.906 88.7109C884.441 92.6788 889.459 98.3389 892.96 105.691C896.578 112.927 898.387 121.504 898.387 131.424C898.387 141.227 896.578 149.805 892.96 157.157C889.459 164.509 884.441 170.169 877.906 174.137C871.487 178.105 863.96 180.089 855.324 180.089ZM855.324 163.809C863.143 163.809 869.153 160.95 873.354 155.231C877.672 149.513 879.831 141.577 879.831 131.424C879.831 121.271 877.672 113.335 873.354 107.617C869.153 101.898 863.143 99.0391 855.324 99.0391C847.505 99.0391 841.436 101.898 837.118 107.617C832.917 113.335 830.816 121.271 830.816 131.424C830.816 141.577 832.917 149.513 837.118 155.231C841.436 160.95 847.505 163.809 855.324 163.809Z" fill="white"/>
<path d="M718.5 177.988V161.358L774.868 99.7393H720.251V84.8597H794.824V101.49L738.281 163.109H796.224V177.988H718.5Z" fill="white"/>
<path d="M656.6 177.988V84.8597H674.455V177.988H656.6ZM620.189 177.988V163.109H705.615V177.988H620.189ZM621.939 99.7393V84.8597H672.88V99.7393H621.939ZM655.549 71.3806V53H673.755V71.3806H655.549Z" fill="white"/>
<path d="M547.26 177.988V84.8597H561.264L562.84 108.667L561.264 108.492C562.431 100.439 564.94 94.4877 568.791 90.6365C572.643 86.7853 577.953 84.8597 584.721 84.8597H604.502V100.264H585.421C580.987 100.264 577.252 101.14 574.218 102.89C571.184 104.524 568.85 107.033 567.216 110.418C565.699 113.685 564.94 117.77 564.94 122.671V177.988H547.26ZM523.628 177.988V163.109H593.999V177.988H523.628ZM523.628 99.7393V84.8597H557.238V99.7393H523.628Z" fill="white"/>
<path d="M463.478 180.089C454.842 180.089 447.256 178.105 440.721 174.137C434.302 170.169 429.284 164.509 425.666 157.157C422.165 149.805 420.414 141.227 420.414 131.424C420.414 121.504 422.165 112.927 425.666 105.691C429.284 98.3389 434.302 92.6788 440.721 88.7109C447.256 84.743 454.842 82.7591 463.478 82.7591C472.114 82.7591 479.641 84.743 486.059 88.7109C492.595 92.6788 497.613 98.3389 501.114 105.691C504.732 112.927 506.541 121.504 506.541 131.424C506.541 141.227 504.732 149.805 501.114 157.157C497.613 164.509 492.595 170.169 486.059 174.137C479.641 178.105 472.114 180.089 463.478 180.089ZM463.478 163.809C471.297 163.809 477.307 160.95 481.508 155.231C485.826 149.513 487.985 141.577 487.985 131.424C487.985 121.271 485.826 113.335 481.508 107.617C477.307 101.898 471.297 99.0391 463.478 99.0391C455.659 99.0391 449.59 101.898 445.272 107.617C441.071 113.335 438.97 121.271 438.97 131.424C438.97 141.577 441.071 149.513 445.272 155.231C449.59 160.95 455.659 163.809 463.478 163.809Z" fill="white"/>
<path d="M329.28 177.988V53.7002H346.96V105.166L345.21 104.466C346.377 99.4475 348.361 95.3629 351.162 92.212C353.963 88.9443 357.347 86.5519 361.315 85.0348C365.283 83.5177 369.659 82.7591 374.444 82.7591C380.979 82.7591 386.464 84.2762 390.899 87.3105C395.45 90.228 398.835 94.371 401.052 99.7393C403.386 104.991 404.553 111.059 404.553 117.945V177.988H386.873V122.496C386.873 114.094 385.355 107.967 382.321 104.116C379.404 100.148 375.027 98.1638 369.192 98.1638C362.54 98.1638 357.172 100.264 353.087 104.466C349.003 108.667 346.96 114.852 346.96 123.021V177.988H329.28Z" fill="white"/>
<g clip-path="url(#clip0_7_158)">
<path d="M224.255 0.818604H23.2989C10.4313 0.818604 0 11.2499 0 24.1175V209.21C0 222.077 10.4313 232.509 23.2989 232.509H224.255C237.123 232.509 247.554 222.077 247.554 209.21V24.1175C247.554 11.2499 237.123 0.818604 224.255 0.818604Z" fill="#2DA01D"/>
<path d="M55.6021 63.6721L43.24 58.2772L28.0959 92.9701L82.363 116.657L28.0959 140.343L43.24 175.036L55.6162 169.641C65.9225 165.139 74.6919 157.728 80.85 148.317C87.0081 138.906 90.2875 127.903 90.2866 116.657C90.2863 105.408 87.0048 94.4042 80.8441 84.993C74.6834 75.5819 65.9111 68.1722 55.6021 63.6721Z" fill="white"/>
<path d="M176.757 56.421L182.152 44.0588L147.459 28.9148L123.773 83.1818L100.103 28.9148L65.3936 44.0588L70.7913 56.4351C75.293 66.7411 82.703 75.5104 92.1136 81.6685C101.524 87.8266 112.526 91.1062 123.773 91.1054C135.021 91.1052 146.025 87.8236 155.436 81.6629C164.847 75.5022 172.257 66.7299 176.757 56.421Z" fill="white"/>
<path d="M191.938 169.641L204.314 175.036L219.458 140.343L165.177 116.657L219.444 92.9701L204.3 58.2772L191.924 63.6721C181.617 68.174 172.848 75.5845 166.69 84.9956C160.531 94.4067 157.252 105.41 157.253 116.657C157.253 127.905 160.535 138.909 166.695 148.32C172.856 157.732 181.629 165.141 191.938 169.641Z" fill="white"/>
<path d="M70.7913 176.892L65.3936 189.269L100.103 204.399L123.773 150.146L147.459 204.413L182.152 189.257L176.757 176.881C172.255 166.574 164.845 157.804 155.434 151.646C146.023 145.487 135.02 142.207 123.773 142.208C112.525 142.208 101.521 145.49 92.1107 151.651C82.7 157.811 75.2909 166.584 70.7913 176.892Z" fill="white"/>
</g>
<defs>
<clipPath id="clip0_7_158">
<rect width="248" height="233" fill="white"/>
</clipPath>
</defs>
</svg>
