<svg width="33" height="24" viewBox="0 0 33 24" fill="none" xmlns="http://www.w3.org/2000/svg">
<path d="M12.1262 1.61294L7.52508 6.70467L6.5786 5.65729C6.16488 5.19945 6.16488 4.45715 6.5786 3.99931L9.68157 0.565547C10.0953 0.107708 10.7661 0.107709 11.1798 0.565547L12.1262 1.61294Z" fill="#2DA01D"/>
<path d="M7.50744 16.7998L12.1086 21.8916L11.1798 22.9194C10.7661 23.3773 10.0953 23.3773 9.68158 22.9194L6.57861 19.4857C6.16488 19.0278 6.16488 18.2856 6.57861 17.8277L7.50744 16.7998Z" fill="#2DA01D"/>
<path d="M5.87488 8.53059L4.51562 10.0347C3.65368 10.9886 3.65369 12.5351 4.51562 13.4889L5.8436 14.9585L4.91148 15.99C4.49775 16.4478 3.82696 16.4478 3.41323 15.99L0.310296 12.5562C-0.103433 12.0984 -0.103432 11.3561 0.310297 10.8983L3.41323 7.46447C3.82697 7.00663 4.49775 7.00663 4.91148 7.46447L5.87488 8.53059Z" fill="#2DA01D"/>
<path d="M17.9937 1.67525L13.3925 6.767L12.3898 5.65729C11.976 5.19945 11.976 4.45715 12.3898 3.99931L15.4927 0.565547C15.9064 0.107708 16.5772 0.107709 16.9909 0.565547L17.9937 1.67525Z" fill="#2DA01D"/>
<path d="M13.3749 16.7373L17.9761 21.8291L16.9909 22.9192C16.5772 23.3771 15.9064 23.3771 15.4927 22.9192L12.3897 19.4855C11.976 19.0276 11.976 18.2854 12.3898 17.8276L13.3749 16.7373Z" fill="#2DA01D"/>
<path d="M11.7423 8.59291L10.4393 10.0347C9.57743 10.9886 9.57743 12.5351 10.4393 13.4889L11.711 14.8961L10.7226 15.99C10.3089 16.4478 9.63808 16.4478 9.22433 15.99L6.1214 12.5562C5.70766 12.0984 5.70766 11.3561 6.1214 10.8983L9.22434 7.46447C9.63808 7.00663 10.3089 7.00663 10.7226 7.46447L11.7423 8.59291Z" fill="#2DA01D"/>
<path d="M21.517 0.51794C21.9307 0.0601017 22.6015 0.0600998 23.0152 0.51794L31.9273 10.3802C32.6169 11.1433 32.6169 12.3805 31.9273 13.1435L23.0152 23.0059C22.6015 23.4637 21.9307 23.4637 21.517 23.0059L12.1054 12.5909C11.6917 12.133 11.6917 11.3907 12.1054 10.9329L21.517 0.51794Z" fill="#2DA01D"/>
</svg>
