<svg width="157" height="24" viewBox="0 0 157 24" fill="none" xmlns="http://www.w3.org/2000/svg">
<g clip-path="url(#clip0_3171_28441)">
<path d="M12.1262 1.43813L7.52508 6.52987L6.5786 5.48248C6.16488 5.02465 6.16488 4.28234 6.5786 3.82451L9.68157 0.390742C10.0953 -0.0670972 10.7661 -0.0670956 11.1798 0.390743L12.1262 1.43813Z" fill="#2DA01D"/>
<path d="M7.50744 16.6252L12.1086 21.717L11.1798 22.7449C10.7661 23.2027 10.0953 23.2027 9.68158 22.7449L6.57861 19.3111C6.16488 18.8533 6.16488 18.111 6.57861 17.6532L7.50744 16.6252Z" fill="#2DA01D"/>
<path d="M5.87488 8.35627L4.51562 9.86042C3.65368 10.8143 3.65369 12.3608 4.51562 13.3146L5.8436 14.7842L4.91148 15.8156C4.49775 16.2735 3.82696 16.2735 3.41323 15.8156L0.310296 12.3819C-0.103433 11.924 -0.103432 11.1818 0.310297 10.724L3.41323 7.29016C3.82697 6.83232 4.49775 6.83232 4.91148 7.29016L5.87488 8.35627Z" fill="#2DA01D"/>
<path d="M17.9937 1.50045L13.3925 6.5922L12.3898 5.48248C11.976 5.02465 11.976 4.28234 12.3898 3.82451L15.4927 0.390742C15.9064 -0.0670972 16.5772 -0.0670956 16.9909 0.390743L17.9937 1.50045Z" fill="#2DA01D"/>
<path d="M13.3749 16.563L17.9761 21.6548L16.9909 22.7449C16.5772 23.2028 15.9064 23.2028 15.4927 22.7449L12.3897 19.3112C11.976 18.8533 11.976 18.1111 12.3898 17.6532L13.3749 16.563Z" fill="#2DA01D"/>
<path d="M11.7423 8.41859L10.4393 9.86042C9.57743 10.8143 9.57743 12.3608 10.4393 13.3146L11.711 14.7218L10.7226 15.8156C10.3089 16.2735 9.63808 16.2735 9.22433 15.8156L6.1214 12.3819C5.70766 11.924 5.70766 11.1818 6.1214 10.724L9.22434 7.29016C9.63808 6.83232 10.3089 6.83232 10.7226 7.29016L11.7423 8.41859Z" fill="#2DA01D"/>
<path d="M21.517 0.34338C21.9307 -0.114459 22.6015 -0.114461 23.0152 0.343379L31.9273 10.2056C32.6169 10.9687 32.6169 12.2059 31.9273 12.969L23.0152 22.8313C22.6015 23.2891 21.9307 23.2891 21.517 22.8313L12.1054 12.4163C11.6917 11.9585 11.6917 11.2161 12.1054 10.7584L21.517 0.34338Z" fill="#2DA01D"/>
<path d="M43.5586 18.6467V13.9139H46.8993C49.5242 13.9139 51.294 11.6271 51.294 9.22102C51.294 6.91432 49.4049 4.52808 46.7999 4.52808H40.8145V18.6467H43.5586ZM43.5586 6.93421H46.6209C47.5953 6.93421 48.5101 7.76939 48.5101 9.22102C48.5101 10.613 47.7545 11.5079 46.7403 11.5079H43.5586V6.93421Z" fill="#222222"/>
<path d="M55.9093 18.6467V13.9139H58.6137L61.5766 18.6467H64.6787L61.3579 13.3373C62.9089 12.6811 63.9032 11.0306 63.9032 9.22102C63.9032 6.91432 62.0141 4.52808 59.4092 4.52808H53.1651V18.6467H55.9093ZM55.9093 6.93421H59.2302C60.2046 6.93421 61.1391 7.90859 61.1391 9.22102C61.1391 10.4937 60.3636 11.5079 59.3494 11.5079H55.9093V6.93421Z" fill="#222222"/>
<path d="M69.3086 16.2406V12.5617H75.2543V10.3346H69.3086V6.93421H76.1889V4.52808H66.5644V18.6467H76.3679V16.2406H69.3086Z" fill="#222222"/>
<path d="M81.3098 18.6467V13.9139H84.0142L86.9771 18.6467H90.0792L86.7583 13.3373C88.3094 12.6811 89.3037 11.0306 89.3037 9.22102C89.3037 6.91432 87.4145 4.52808 84.8096 4.52808H78.5656V18.6467H81.3098ZM81.3098 6.93421H84.6306C85.605 6.93421 86.5396 7.90859 86.5396 9.22102C86.5396 10.4937 85.7641 11.5079 84.7499 11.5079H81.3098V6.93421Z" fill="#222222"/>
<path d="M94.7085 16.2406V12.5617H100.655V10.3346H94.7085V6.93421H101.589V4.52808H91.9648V18.6467H101.768V16.2406H94.7085Z" fill="#222222"/>
<path d="M113.969 18.6467H116.195V4.54797H113.452V13.7947L106.094 4.52808H103.966V18.6467H106.71V9.59884L113.969 18.6467Z" fill="#222222"/>
<path d="M124.263 18.6467C128.499 18.6467 131.223 15.8428 131.223 11.5675C131.223 7.66996 128.876 4.52808 124.263 4.52808H119.132V18.6467H124.263ZM128.459 11.5675C128.459 14.2321 126.967 16.2406 124.263 16.2406H121.877V6.93421H124.263C126.928 6.93421 128.459 8.84319 128.459 11.5675Z" fill="#222222"/>
<path d="M136.15 16.2406V12.5617H142.096V10.3346H136.15V6.93421H143.03V4.52808H133.406V18.6467H143.209V16.2406H136.15Z" fill="#222222"/>
<path d="M148.151 18.6467V13.9139H150.856L153.818 18.6467H156.92L153.599 13.3373C155.151 12.6811 156.145 11.0306 156.145 9.22102C156.145 6.91432 154.255 4.52808 151.65 4.52808H145.407V18.6467H148.151ZM148.151 6.93421H151.471C152.446 6.93421 153.38 7.90859 153.38 9.22102C153.38 10.4937 152.605 11.5079 151.591 11.5079H148.151V6.93421Z" fill="#222222"/>
</g>
<defs>
<clipPath id="clip0_3171_28441">
<rect width="156.92" height="23.1747" fill="white"/>
</clipPath>
</defs>
</svg>
