<svg width="157" height="24" viewBox="0 0 157 24" fill="none" xmlns="http://www.w3.org/2000/svg">
<g clip-path="url(#clip0_3171_28855)">
<path d="M12.1262 1.61294L7.52508 6.70467L6.5786 5.65729C6.16488 5.19945 6.16488 4.45715 6.5786 3.99931L9.68157 0.565547C10.0953 0.107708 10.7661 0.107709 11.1798 0.565547L12.1262 1.61294Z" fill="#2DA01D"/>
<path d="M7.50744 16.7998L12.1086 21.8916L11.1798 22.9194C10.7661 23.3773 10.0953 23.3773 9.68158 22.9194L6.57861 19.4857C6.16488 19.0278 6.16488 18.2856 6.57861 17.8277L7.50744 16.7998Z" fill="#2DA01D"/>
<path d="M5.87488 8.53059L4.51562 10.0347C3.65368 10.9886 3.65369 12.5351 4.51562 13.4889L5.8436 14.9585L4.91148 15.99C4.49775 16.4478 3.82696 16.4478 3.41323 15.99L0.310296 12.5562C-0.103433 12.0984 -0.103432 11.3561 0.310297 10.8983L3.41323 7.46447C3.82697 7.00663 4.49775 7.00663 4.91148 7.46447L5.87488 8.53059Z" fill="#2DA01D"/>
<path d="M17.9937 1.67525L13.3925 6.767L12.3898 5.65729C11.976 5.19945 11.976 4.45715 12.3898 3.99931L15.4927 0.565547C15.9064 0.107708 16.5772 0.107709 16.9909 0.565547L17.9937 1.67525Z" fill="#2DA01D"/>
<path d="M13.3749 16.7373L17.9761 21.8291L16.9909 22.9192C16.5772 23.3771 15.9064 23.3771 15.4927 22.9192L12.3897 19.4855C11.976 19.0276 11.976 18.2854 12.3898 17.8276L13.3749 16.7373Z" fill="#2DA01D"/>
<path d="M11.7423 8.59291L10.4393 10.0347C9.57743 10.9886 9.57743 12.5351 10.4393 13.4889L11.711 14.8961L10.7226 15.99C10.3089 16.4478 9.63808 16.4478 9.22433 15.99L6.1214 12.5562C5.70766 12.0984 5.70766 11.3561 6.1214 10.8983L9.22434 7.46447C9.63808 7.00663 10.3089 7.00663 10.7226 7.46447L11.7423 8.59291Z" fill="#2DA01D"/>
<path d="M21.517 0.51794C21.9307 0.0601017 22.6015 0.0600998 23.0152 0.51794L31.9273 10.3802C32.6169 11.1433 32.6169 12.3805 31.9273 13.1435L23.0152 23.0059C22.6015 23.4637 21.9307 23.4637 21.517 23.0059L12.1054 12.5909C11.6917 12.133 11.6917 11.3907 12.1054 10.9329L21.517 0.51794Z" fill="#2DA01D"/>
<path d="M43.5586 18.8212V14.0885H46.8993C49.5242 14.0885 51.294 11.8017 51.294 9.39558C51.294 7.08888 49.4049 4.70264 46.7999 4.70264H40.8145V18.8212H43.5586ZM43.5586 7.10877H46.6209C47.5953 7.10877 48.5101 7.94395 48.5101 9.39558C48.5101 10.7876 47.7545 11.6824 46.7403 11.6824H43.5586V7.10877Z" fill="white"/>
<path d="M55.9093 18.8212V14.0885H58.6137L61.5766 18.8212H64.6787L61.3579 13.5119C62.9089 12.8556 63.9032 11.2052 63.9032 9.39558C63.9032 7.08888 62.0141 4.70264 59.4092 4.70264H53.1651V18.8212H55.9093ZM55.9093 7.10877H59.2302C60.2046 7.10877 61.1391 8.08315 61.1391 9.39558C61.1391 10.6682 60.3636 11.6824 59.3494 11.6824H55.9093V7.10877Z" fill="white"/>
<path d="M69.3086 16.4151V12.7363H75.2543V10.5092H69.3086V7.10877H76.1889V4.70264H66.5644V18.8212H76.3679V16.4151H69.3086Z" fill="white"/>
<path d="M81.3098 18.8212V14.0885H84.0142L86.9771 18.8212H90.0792L86.7583 13.5119C88.3094 12.8556 89.3037 11.2052 89.3037 9.39558C89.3037 7.08888 87.4145 4.70264 84.8096 4.70264H78.5656V18.8212H81.3098ZM81.3098 7.10877H84.6306C85.605 7.10877 86.5396 8.08315 86.5396 9.39558C86.5396 10.6682 85.7641 11.6824 84.7499 11.6824H81.3098V7.10877Z" fill="white"/>
<path d="M94.7085 16.4151V12.7363H100.655V10.5092H94.7085V7.10877H101.589V4.70264H91.9648V18.8212H101.768V16.4151H94.7085Z" fill="white"/>
<path d="M113.969 18.8212H116.195V4.72253H113.452V13.9692L106.094 4.70264H103.966V18.8212H106.71V9.7734L113.969 18.8212Z" fill="white"/>
<path d="M124.263 18.8212C128.499 18.8212 131.223 16.0174 131.223 11.742C131.223 7.84452 128.876 4.70264 124.263 4.70264H119.132V18.8212H124.263ZM128.459 11.742C128.459 14.4067 126.967 16.4151 124.263 16.4151H121.877V7.10877H124.263C126.928 7.10877 128.459 9.01775 128.459 11.742Z" fill="white"/>
<path d="M136.15 16.4151V12.7363H142.096V10.5092H136.15V7.10877H143.03V4.70264H133.406V18.8212H143.209V16.4151H136.15Z" fill="white"/>
<path d="M148.151 18.8212V14.0885H150.856L153.818 18.8212H156.92L153.599 13.5119C155.151 12.8556 156.145 11.2052 156.145 9.39558C156.145 7.08888 154.255 4.70264 151.65 4.70264H145.407V18.8212H148.151ZM148.151 7.10877H151.471C152.446 7.10877 153.38 8.08315 153.38 9.39558C153.38 10.6682 152.605 11.6824 151.591 11.6824H148.151V7.10877Z" fill="white"/>
</g>
<defs>
<clipPath id="clip0_3171_28855">
<rect width="156.92" height="23.1747" fill="white" transform="translate(0 0.174561)"/>
</clipPath>
</defs>
</svg>
