<svg xmlns="http://www.w3.org/2000/svg" version="1.1" xmlns:xlink="http://www.w3.org/1999/xlink" width="248" height="233"><svg width="248" height="233" viewBox="0 0 248 233" fill="none" xmlns="http://www.w3.org/2000/svg">
<g clip-path="url(#clip0_7_115)">
<path d="M224.255 0.818604H23.2989C10.4313 0.818604 0 11.2499 0 24.1175V209.21C0 222.077 10.4313 232.509 23.2989 232.509H224.255C237.123 232.509 247.554 222.077 247.554 209.21V24.1175C247.554 11.2499 237.123 0.818604 224.255 0.818604Z" fill="#2DA01D"></path>
<path d="M55.6021 63.6721L43.24 58.2772L28.0959 92.9701L82.363 116.657L28.0959 140.343L43.24 175.036L55.6162 169.641C65.9225 165.139 74.6919 157.728 80.85 148.317C87.0081 138.906 90.2875 127.903 90.2866 116.657C90.2863 105.408 87.0048 94.4042 80.8441 84.993C74.6834 75.5819 65.9111 68.1722 55.6021 63.6721Z" fill="white"></path>
<path d="M176.757 56.421L182.152 44.0588L147.459 28.9148L123.773 83.1818L100.103 28.9148L65.3936 44.0588L70.7913 56.4351C75.293 66.7411 82.703 75.5104 92.1136 81.6685C101.524 87.8266 112.526 91.1062 123.773 91.1054C135.021 91.1052 146.025 87.8236 155.436 81.6629C164.847 75.5022 172.257 66.7299 176.757 56.421Z" fill="white"></path>
<path d="M191.938 169.641L204.314 175.036L219.458 140.343L165.177 116.657L219.444 92.9701L204.3 58.2772L191.924 63.6721C181.617 68.174 172.848 75.5845 166.69 84.9956C160.531 94.4067 157.252 105.41 157.253 116.657C157.253 127.905 160.535 138.909 166.695 148.32C172.856 157.732 181.629 165.141 191.938 169.641Z" fill="white"></path>
<path d="M70.7913 176.892L65.3936 189.269L100.103 204.399L123.773 150.146L147.459 204.413L182.152 189.257L176.757 176.881C172.255 166.574 164.845 157.804 155.434 151.646C146.023 145.487 135.02 142.207 123.773 142.208C112.525 142.208 101.521 145.49 92.1107 151.651C82.7 157.811 75.2909 166.584 70.7913 176.892Z" fill="white"></path>
</g>
<defs>
<clipPath id="SvgjsClipPath1042">
<rect width="248" height="233" fill="white"></rect>
</clipPath>
</defs>
</svg><style>@media (prefers-color-scheme: light) { :root { filter: none; } }
@media (prefers-color-scheme: dark) { :root { filter: none; } }
</style></svg>